<?xml version="1.0" encoding="utf-8"?>
<!-- Generator: Adobe Illustrator 15.1.0, SVG Export Plug-In . SVG Version: 6.00 Build 0)  -->
<!DOCTYPE svg PUBLIC "-//W3C//DTD SVG 1.1//EN" "http://www.w3.org/Graphics/SVG/1.1/DTD/svg11.dtd">
<svg version="1.1" id="Layer_1" xmlns="http://www.w3.org/2000/svg" xmlns:xlink="http://www.w3.org/1999/xlink" x="0px" y="0px"
	 width="396px" height="200px" viewBox="0 0 396 200" enable-background="new 0 0 396 200" xml:space="preserve">
<g>
	<rect x="66.674" y="121.266" fill="#94C947" width="166.664" height="14.332"/>
	<g>
		<path d="M315.639,115.967c11.105,0,19.762-6.436,19.762-21.869c0-0.688-0.023-1.35-0.061-2.002h-19.432v8.109h7.357
			c-1.156,4.119-3.668,6.594-7.566,6.641h-0.115c-5.561-0.068-8.314-5.055-8.314-12.748c0-7.859,2.676-12.473,8.314-12.473h0.113
			c3.943,0,6.432,2.264,7.576,6.309h11.57c-2.115-10.998-10.055-15.705-19.205-15.705c-10.703,0-19.762,6.436-19.762,21.869
			S304.535,115.967,315.639,115.967z"/>
		<path d="M127.552,72.164c-10.196,0-20.732,6.434-20.732,21.867c0,15.436,10.536,21.871,20.732,21.871
			c10.136,0,20.673-6.436,20.673-21.871C148.225,78.598,137.688,72.164,127.552,72.164z M127.552,106.789
			c-5.98,0-9.342-5.012-9.342-12.758c0-7.744,3.361-12.471,9.342-12.471c5.921,0,9.282,4.727,9.282,12.471
			C136.834,101.777,133.473,106.789,127.552,106.789z"/>
		<path d="M171.412,72.164c-10.197,0-20.732,6.434-20.732,21.867c0,15.436,10.535,21.871,20.732,21.871
			c10.135,0,20.67-6.436,20.67-21.871C192.082,78.598,181.547,72.164,171.412,72.164z M171.412,106.789
			c-5.981,0-9.342-5.012-9.342-12.758c0-7.744,3.36-12.471,9.342-12.471c5.92,0,9.282,4.727,9.282,12.471
			C180.694,101.777,177.332,106.789,171.412,106.789z"/>
		<polygon points="231.896,72.967 218.953,72.967 207.529,93.756 220.971,115.115 233.916,115.115 220.158,93.779 		"/>
		<rect x="196.006" y="72.73" width="11.455" height="42.385"/>
		<rect x="237.439" y="72.961" width="11.395" height="42.143"/>
		<polygon points="281.287,115.104 291.824,115.104 291.824,72.961 281.402,72.961 281.402,96.594 281.287,96.594 265.854,72.961 
			254.637,72.961 254.637,115.104 265.059,115.104 265.059,91.527 265.172,91.527 		"/>
		<path d="M85.277,106.865h-0.113c-5.562-0.07-8.314-5.057-8.314-12.75c0-7.859,2.674-12.475,8.314-12.475h0.112
			c3.944,0,6.431,2.266,7.577,6.311h11.57c-2.116-11-10.056-15.705-19.203-15.705c-10.707,0-19.762,6.436-19.762,21.869
			c0,15.436,8.656,21.869,19.762,21.869c9.746,0,17.604-4.959,19.381-16.607H93.065C92.025,104.008,89.436,106.814,85.277,106.865z"
			/>
		<polygon points="260.545,126.822 253.934,126.822 253.934,121.016 251.473,121.016 251.473,135.578 253.934,135.578 
			253.934,129.104 260.545,129.104 260.545,135.578 263.004,135.578 263.004,121.016 260.545,121.016 		"/>
		<path d="M270.309,120.957l-5.154,14.621h2.301l1.201-3.463h5.529l1.18,3.463h2.521l-5.156-14.621H270.309z M269.404,129.951
			l2.027-5.904h0.039l1.986,5.904H269.404z"/>
		<polygon points="289.73,131.406 289.691,131.406 282.801,121.016 280.303,121.016 280.303,135.578 282.586,135.578 
			282.586,124.971 282.625,124.971 289.77,135.578 292.012,135.578 292.012,121.016 289.73,121.016 		"/>
		<polygon points="305.242,131.406 305.201,131.406 298.312,121.016 295.814,121.016 295.814,135.578 298.098,135.578 
			298.098,124.971 298.137,124.971 305.279,135.578 307.523,135.578 307.523,121.016 305.242,121.016 		"/>
		<polygon points="313.783,129.104 318.881,129.104 318.881,126.92 313.783,126.92 313.783,123.299 320.73,123.299 320.73,121.016 
			311.324,121.016 311.324,135.578 321.125,135.578 321.125,133.336 313.783,133.336 		"/>
		<polygon points="326.498,121.016 324.039,121.016 324.039,135.578 333.211,135.578 333.211,133.336 326.498,133.336 		"/>
		<path d="M243.387,133.592c-2.441-0.016-3.906-1.92-3.906-5.371c0-3.289,1.453-5.223,3.891-5.24c1.797,0,2.672,1.039,3.225,2.881
			h2.547c-0.75-3.344-2.742-5.131-5.746-5.137v-0.002c-0.002,0-0.006,0.002-0.006,0.002c-0.006,0-0.008-0.002-0.008-0.002
			l-0.004,0.002c-3.652,0.008-6.379,2.645-6.379,7.516c0,5.012,2.65,7.588,6.379,7.596c0,0,0.006,0,0.008,0c0,0,0.008,0,0.01,0
			c3.143-0.006,5.131-1.844,5.801-5.418h-2.531C246.154,132.467,245.246,133.58,243.387,133.592z"/>
	</g>
</g>
<g display="none">
	<g display="inline">
		<path d="M334.388,78.605l0.592-0.264c0.295,0.792,0.879,1.184,1.678,1.184c0.832,0,1.385-0.352,1.385-0.976
			c0-0.583-0.32-0.872-1.488-1.239c-1.23-0.376-1.967-0.711-1.967-1.735c0-0.904,0.775-1.567,1.902-1.567
			c1.129,0,1.783,0.576,2.088,1.328l-0.561,0.312c-0.318-0.711-0.83-1-1.535-1c-0.75,0-1.199,0.368-1.199,0.872
			c0,0.632,0.4,0.84,1.561,1.208c1.191,0.368,1.895,0.768,1.895,1.775c0,0.976-0.855,1.647-2.111,1.647
			C335.499,80.148,334.698,79.541,334.388,78.605z"/>
		<path d="M339.419,74.119h0.92l1.863,5.029h0.016l1.832-5.029h0.936v5.917h-0.697v-4.79h-0.016
			c-0.08,0.312-0.223,0.696-0.359,1.087l-1.416,3.702h-0.631l-1.416-3.702c-0.143-0.392-0.238-0.64-0.367-1.111h-0.016v4.813h-0.648
			V74.119z"/>
	</g>
</g>
</svg>
